<?xml version="1.0" encoding="UTF-8"?>
<svg width="420px" height="359px" viewBox="0 0 420 359" version="1.1" xmlns="http://www.w3.org/2000/svg" xmlns:xlink="http://www.w3.org/1999/xlink">
    <!-- Generator: Sketch 49.1 (51147) - http://www.bohemiancoding.com/sketch -->
    <title>12</title>
    <desc>Created with Sketch.</desc>
    <defs></defs>
    <g id="web-design" stroke="none" stroke-width="1" fill="none" fill-rule="evenodd" opacity="0.746037138">
        <g id="artists_new" transform="translate(-23.000000, -158.000000)" fill="#FFFFFF">
            <path d="M118.164062,517 L118.164062,211.335938 L117.1875,211.335938 L103.149414,221.467773 C93.7906433,228.222365 82.9264941,236.034786 70.5566406,244.905273 C58.1867871,253.77576 47.3226379,261.588182 37.9638672,268.342773 L23.9257812,278.474609 L23.9257812,232.087891 L38.0859375,221.956055 C47.5260889,215.201464 58.4309277,207.348352 70.8007812,198.396484 C83.1706348,189.444617 94.0754736,181.591505 103.515625,174.836914 L117.675781,164.705078 L160.644531,164.705078 L160.644531,517 L118.164062,517 Z M207.802734,266.267578 C207.802734,235.505706 218.870332,209.911886 241.005859,189.485352 C263.141387,169.058817 290.810381,158.845703 324.013672,158.845703 C355.589351,158.845703 382.241102,168.204333 403.969727,186.921875 C425.698351,205.639417 436.5625,228.507026 436.5625,255.525391 C436.5625,275.2195 431.15077,294.099519 420.327148,312.166016 C409.503527,330.232512 389.362126,354.483572 359.902344,384.919922 L270.791016,476.960938 L270.791016,477.9375 L442.421875,477.9375 L442.421875,517 L210,517 L210,486.726562 L334.023438,356.111328 C357.786577,331.20886 373.4928,312.32884 381.142578,299.470703 C388.792356,286.612566 392.617188,272.859448 392.617188,258.210938 C392.617188,241.28377 385.822008,226.879617 372.231445,214.998047 C358.640883,203.116477 342.161555,197.175781 322.792969,197.175781 C302.122292,197.175781 284.869861,203.767512 271.035156,216.951172 C257.200452,230.134832 250.283203,246.573469 250.283203,266.267578 L250.283203,266.511719 L207.802734,266.511719 L207.802734,266.267578 Z" id="12"></path>
        </g>
    </g>
</svg>