<?xml version="1.0" encoding="UTF-8"?>
<svg width="50px" height="22px" viewBox="0 0 50 22" version="1.1" xmlns="http://www.w3.org/2000/svg" xmlns:xlink="http://www.w3.org/1999/xlink">
    <!-- Generator: Sketch 49.1 (51147) - http://www.bohemiancoding.com/sketch -->
    <title>logo_black</title>
    <desc>Created with Sketch.</desc>
    <defs></defs>
    <g id="Page-1" stroke="none" stroke-width="1" fill="none" fill-rule="evenodd">
        <g id="logo_black" fill="#000000" fill-rule="nonzero">
            <path d="M46.555938,1 L27,1 L27,18.4871795 L22.4285714,18.4871795 L22.4285714,1 L8.71428571,1 L8.71428571,18.4871795 L4.42857143,18.4871795 L4.42857143,16.5128205 L1,16.5128205 L1,21 L12.7142857,21 L12.7142857,3.51282051 L18.7142857,3.51282051 L18.7142857,21 L30.7142857,21 L30.7142857,3.51282051 L41.7743812,3.51282051 L34.631524,21 L49,21 L49,16.5128205 L45.2857143,16.5128205 L45.2857143,18.4871795 L39.9845094,18.4871795 L46.555938,1 Z M40.2857143,4.51282051 L31.7142857,4.51282051 L31.7142857,22 L17.7142857,22 L17.7142857,4.51282051 L13.7142857,4.51282051 L13.7142857,22 L0,22 L0,15.5128205 L5.42857143,15.5128205 L5.42857143,17.4871795 L7.71428571,17.4871795 L7.71428571,0 L23.4285714,0 L23.4285714,17.4871795 L26,17.4871795 L26,0 L48,0 L41.4285714,17.4871795 L44.2857143,17.4871795 L44.2857143,15.5128205 L50,15.5128205 L50,22 L33.1428571,22 L40.2857143,4.51282051 Z" id="Path-3"></path>
        </g>
    </g>
</svg>