<?xml version="1.0" encoding="UTF-8"?>
<svg width="1163px" height="146px" viewBox="0 0 1163 146" version="1.1" xmlns="http://www.w3.org/2000/svg" xmlns:xlink="http://www.w3.org/1999/xlink">
    <g id="web-design" stroke="none" stroke-width="1" fill="none" fill-rule="evenodd" opacity="0.04">
        <g id="artists_info_new" transform="translate(-175.000000, -202.000000)" fill="#000000">
            <path d="M212.8,272 L200.8,251 L199.8,251 L203,272.2 L203,345 L175,345 L175,204 L196.4,204 L254.2,278.6 L265.6,299 L266.8,299 L263.6,278.4 L263.6,205 L291.6,205 L291.6,346 L270.2,346 L212.8,272 Z M328.6,221 L312.6,221 L312.6,205 L374.2,205 L374.2,221 L358.2,221 L358.2,329 L374.2,329 L374.2,345 L312.6,345 L312.6,329 L328.6,329 L328.6,221 Z M433,272 L421,251 L420,251 L423.2,272.2 L423.2,345 L395.2,345 L395.2,204 L416.6,204 L474.4,278.6 L485.8,299 L487,299 L483.8,278.4 L483.8,205 L511.8,205 L511.8,346 L490.4,346 L433,272 Z M537.8,205 L628,205 L628,231 L567.4,231 L567.4,261.4 L622.4,261.4 L622.4,287.4 L567.4,287.4 L567.4,319 L629,319 L629,345 L537.8,345 L537.8,205 Z M758.8,231 L714.4,231 L714.4,345 L684.8,345 L684.8,231 L640.4,231 L640.4,205 L758.8,205 L758.8,231 Z M810.8,293.4 L760.8,205 L796,205 L824,256.4 L827.2,271.4 L828.2,271.4 L831.6,256 L858.6,205 L890.4,205 L840.4,293.2 L840.4,345 L810.8,345 L810.8,293.4 Z M953.2,275 C953.2,263.533276 954.666652,253.266712 957.6,244.2 C960.533348,235.133288 964.766639,227.500031 970.3,221.3 C975.833361,215.099969 982.59996,210.366683 990.6,207.1 C998.60004,203.833317 1007.66662,202.2 1017.8,202.2 C1028.60005,202.2 1038.03329,203.966649 1046.1,207.5 C1054.16671,211.033351 1060.89997,215.999968 1066.3,222.4 C1071.70003,228.800032 1075.76665,236.466622 1078.5,245.4 C1081.23335,254.333378 1082.6,264.199946 1082.6,275 C1082.6,286.466724 1081.10001,296.733288 1078.1,305.8 C1075.09999,314.866712 1070.80003,322.499969 1065.2,328.7 C1059.59997,334.900031 1052.80004,339.633317 1044.8,342.9 C1036.79996,346.166683 1027.80005,347.8 1017.8,347.8 C1006.99995,347.8 997.566707,346.033351 989.5,342.5 C981.433293,338.966649 974.700027,334.000032 969.3,327.6 C963.899973,321.199968 959.86668,313.533378 957.2,304.6 C954.53332,295.666622 953.2,285.800054 953.2,275 Z M984.6,275 C984.6,281.933368 985.26666,288.266638 986.6,294 C987.93334,299.733362 989.93332,304.666646 992.6,308.8 C995.26668,312.933354 998.699979,316.133322 1002.9,318.4 C1007.10002,320.666678 1012.06664,321.8 1017.8,321.8 C1028.33339,321.8 1036.5333,318.200036 1042.4,311 C1048.2667,303.799964 1051.2,291.800084 1051.2,275 C1051.2,268.3333 1050.60001,262.133362 1049.4,256.4 C1048.19999,250.666638 1046.23335,245.700021 1043.5,241.5 C1040.76665,237.299979 1037.30002,234.033345 1033.1,231.7 C1028.89998,229.366655 1023.80003,228.2 1017.8,228.2 C1007.39995,228.2 999.266696,231.933296 993.4,239.4 C987.533304,246.866704 984.6,258.733252 984.6,275 Z M1141.4,272 L1129.4,251 L1128.4,251 L1131.6,272.2 L1131.6,345 L1103.6,345 L1103.6,204 L1125,204 L1182.8,278.6 L1194.2,299 L1195.4,299 L1192.2,278.4 L1192.2,205 L1220.2,205 L1220.2,346 L1198.8,346 L1141.4,272 Z M1246.2,205 L1336.4,205 L1336.4,231 L1275.8,231 L1275.8,261.4 L1330.8,261.4 L1330.8,287.4 L1275.8,287.4 L1275.8,319 L1337.4,319 L1337.4,345 L1246.2,345 L1246.2,205 Z" id="NINETY-ONE"></path>
        </g>
    </g>
</svg>